{"asset":{"version":"2.0","generator":"Yahya AI CelineRoomEnvironmentV80"},"scene":0,"scenes":[{"name":"CelineRoomV80","nodes":[0,1,2,3,4,5,6,7]}],"nodes":[{"name":"Floor","mesh":0,"translation":[0.0,-1.57,-3.8],"scale":[7.0,0.04,10.0]},{"name":"BackWall","mesh":1,"translation":[0.0,0.43,-6.8],"scale":[7.0,4.0,0.08]},{"name":"ChairSeat","mesh":2,"translation":[0.0,-0.79,-4.12],"scale":[1.15,0.14,0.95]},{"name":"ChairBack","mesh":2,"translation":[0.0,0.05,-4.53],"scale":[1.15,1.55,0.14]},{"name":"ChairLeg_-0.48_-3.76","mesh":3,"translation":[-0.48,-1.205,-3.76],"scale":[0.1,0.7,0.1]},{"name":"ChairLeg_-0.48_-4.47","mesh":3,"translation":[-0.48,-1.205,-4.47],"scale":[0.1,0.7,0.1]},{"name":"ChairLeg_0.48_-3.76","mesh":3,"translation":[0.48,-1.205,-3.76],"scale":[0.1,0.7,0.1]},{"name":"ChairLeg_0.48_-4.47","mesh":3,"translation":[0.48,-1.205,-4.47],"scale":[0.1,0.7,0.1]}],"meshes":[{"name":"FloorCube","primitives":[{"attributes":{"POSITION":0,"NORMAL":1},"indices":2,"material":0}]},{"name":"WallCube","primitives":[{"attributes":{"POSITION":0,"NORMAL":1},"indices":2,"material":1}]},{"name":"ChairCube","primitives":[{"attributes":{"POSITION":0,"NORMAL":1},"indices":2,"material":2}]},{"name":"LegCube","primitives":[{"attributes":{"POSITION":0,"NORMAL":1},"indices":2,"material":3}]}],"materials":[{"name":"FloorWarmWood","pbrMetallicRoughness":{"baseColorFactor":[0.23,0.15,0.1,1.0],"metallicFactor":0.0,"roughnessFactor":0.88}},{"name":"WallWarmOffWhite","pbrMetallicRoughness":{"baseColorFactor":[0.72,0.67,0.58,1.0],"metallicFactor":0.0,"roughnessFactor":0.96}},{"name":"ChairUpholstery","pbrMetallicRoughness":{"baseColorFactor":[0.24,0.11,0.15,1.0],"metallicFactor":0.0,"roughnessFactor":0.82}},{"name":"ChairLegDarkWood","pbrMetallicRoughness":{"baseColorFactor":[0.12,0.07,0.05,1.0],"metallicFactor":0.0,"roughnessFactor":0.78}}],"buffers":[{"byteLength":648,"uri":"data:application/octet-stream;base64,"}],"bufferViews":[{"buffer":0,"byteOffset":0,"byteLength":288,"target":34962},{"buffer":0,"byteOffset":288,"byteLength":288,"target":34962},{"buffer":0,"byteOffset":576,"byteLength":72,"target":34963}],"accessors":[{"bufferView":0,"componentType":5126,"count":24,"type":"VEC3","min":[-0.5,-0.5,-0.5],"max":[0.5,0.5,0.5]},{"bufferView":1,"componentType":5126,"count":24,"type":"VEC3"},{"bufferView":2,"componentType":5123,"count":36,"type":"SCALAR","min":[0],"max":[23]}]}